<svg xmlns="http://www.w3.org/2000/svg" width="180" height="180" viewBox="0 0 180 180"><rect width="180" height="180" fill="#e9a4bf"/><ellipse cx="90" cy="131" rx="50" ry="8" fill="#8a4763" opacity=".16"/><path d="M90 63 C75 55 58 53 45 55 L45 116 C58 114 75 116 90 124 Z" fill="#fff4f8"/><path d="M90 63 C105 55 122 53 135 55 L135 116 C122 114 105 116 90 124 Z" fill="#fff4f8"/><path d="M90 63 V124" stroke="#c17a95" stroke-width="2.4" fill="none" stroke-linecap="round"/><g stroke="#e6a6c0" stroke-width="1.6" stroke-linecap="round"><path d="M55 71 C66 69 76 70 84 73"/><path d="M55 83 C66 81 76 82 84 85"/><path d="M55 95 C66 93 76 94 84 97"/><path d="M96 73 C104 70 114 69 125 71"/><path d="M96 85 C104 82 114 81 125 83"/><path d="M96 97 C104 94 114 93 125 95"/></g><path d="M90 63 C75 55 58 53 45 55 L45 116 C58 114 75 116 90 124 C105 116 122 114 135 116 L135 55 C122 53 105 55 90 63 Z" fill="none" stroke="#a1546f" stroke-width="1.5" stroke-linejoin="round" opacity=".55"/></svg>
